{
	"asset":{
		"generator":"Khronos glTF Blender I/O v4.1.63",
		"version":"2.0"
	},
	"scene":0,
	"scenes":[
		{
			"name":"Scene",
			"nodes":[
				8,
				11
			]
		}
	],
	"nodes":[
		{
			"mesh":0,
			"name":"MH 0304 0002",
			"rotation":[
				-0.29028475284576416,
				0,
				0,
				0.9569404125213623
			],
			"translation":[
				0.01500000525265932,
				0.02955874241888523,
				-0.019750524312257767
			]
		},
		{
			"mesh":1,
			"name":"MR 7580 0002"
		},
		{
			"children":[
				0,
				1
			],
			"name":"AM 7525 0002",
			"rotation":[
				0.19509035348892212,
				0,
				0,
				0.9807853102684021
			]
		},
		{
			"mesh":2,
			"name":"MH 0304 0003",
			"rotation":[
				-0.2902847230434418,
				0,
				0,
				0.9569404125213623
			],
			"translation":[
				0.014999999664723873,
				0.02955876663327217,
				-0.019750528037548065
			]
		},
		{
			"mesh":3,
			"name":"MR 7580 0003"
		},
		{
			"children":[
				3,
				4
			],
			"name":"AM 7525 0003",
			"rotation":[
				0.13794969022274017,
				-0.13794969022274017,
				-0.6935199499130249,
				0.6935198903083801
			],
			"translation":[
				0.11850002408027649,
				0.001500000013038516,
				0
			]
		},
		{
			"mesh":4,
			"name":"MT 8080 0001_D\u0082faut",
			"rotation":[
				0,
				0.7071068286895752,
				-0.7071068286895752,
				3.216977295846183e-23
			],
			"translation":[
				0.11850002408027649,
				-0.007000000216066837,
				0
			]
		},
		{
			"children":[
				2,
				5,
				6
			],
			"name":"AM 7575 0002_D\u0082faut"
		},
		{
			"children":[
				7
			],
			"name":"AM 7575 0005",
			"rotation":[
				0,
				0,
				0.7071068286895752,
				0.7071067094802856
			],
			"translation":[
				0,
				0.15700000524520874,
				0
			]
		},
		{
			"mesh":5,
			"name":"MI 7584 0001_D\u0082faut002"
		},
		{
			"mesh":6,
			"name":"MI 7584 0001_D\u0082faut003",
			"rotation":[
				0,
				-1,
				0,
				7.450581485102248e-09
			]
		},
		{
			"children":[
				9,
				10
			],
			"name":"AM 7584 0002",
			"rotation":[
				0.13794969022274017,
				-0.13794969022274017,
				0.6935199499130249,
				0.6935198903083801
			],
			"translation":[
				0.002749999985098839,
				0.27549999952316284,
				0
			]
		}
	],
	"materials":[
		{
			"doubleSided":true,
			"name":"mat_1",
			"pbrMetallicRoughness":{
				"baseColorFactor":[
					0.5647115111351013,
					0.5332763195037842,
					0.5028864741325378,
					1
				]
			}
		},
		{
			"doubleSided":true,
			"name":"mat_0",
			"pbrMetallicRoughness":{
				"baseColorFactor":[
					0.7230551242828369,
					0.7230551242828369,
					0.7681511640548706,
					1
				],
				"metallicFactor":0
			}
		},
		{
			"doubleSided":true,
			"name":"mat_2",
			"pbrMetallicRoughness":{
				"metallicFactor":0
			}
		},
		{
			"doubleSided":true,
			"name":"mat_3",
			"pbrMetallicRoughness":{
				"baseColorFactor":[
					0.3049873411655426,
					0.3049873411655426,
					0.35640010237693787,
					1
				]
			}
		}
	],
	"meshes":[
		{
			"name":"MH 0304 0002",
			"primitives":[
				{
					"attributes":{
						"POSITION":0,
						"NORMAL":1
					},
					"indices":2,
					"material":0
				}
			]
		},
		{
			"name":"MR 7580 0002",
			"primitives":[
				{
					"attributes":{
						"POSITION":3,
						"NORMAL":4
					},
					"indices":5,
					"material":1
				}
			]
		},
		{
			"name":"MH 0304 0002.001",
			"primitives":[
				{
					"attributes":{
						"POSITION":6,
						"NORMAL":7
					},
					"indices":2,
					"material":0
				}
			]
		},
		{
			"name":"MR 7580 0002.001",
			"primitives":[
				{
					"attributes":{
						"POSITION":8,
						"NORMAL":9
					},
					"indices":5,
					"material":1
				}
			]
		},
		{
			"name":"MT 8080 0001_D\u0082faut",
			"primitives":[
				{
					"attributes":{
						"POSITION":10,
						"NORMAL":11
					},
					"indices":12,
					"material":2
				},
				{
					"attributes":{
						"POSITION":13,
						"NORMAL":14
					},
					"indices":15,
					"material":3
				}
			]
		},
		{
			"name":"MI 7584 0001_D\u0082faut002",
			"primitives":[
				{
					"attributes":{
						"POSITION":16,
						"NORMAL":17
					},
					"indices":18,
					"material":2
				}
			]
		},
		{
			"name":"MI 7584 0001_D\u0082faut002.001",
			"primitives":[
				{
					"attributes":{
						"POSITION":19,
						"NORMAL":20
					},
					"indices":18,
					"material":2
				}
			]
		}
	],
	"accessors":[
		{
			"bufferView":0,
			"componentType":5126,
			"count":172,
			"max":[
				0.001500000013038516,
				0.003980000037699938,
				0.0014958056854084134
			],
			"min":[
				-0.001500000013038516,
				0,
				-0.0014958056854084134
			],
			"type":"VEC3"
		},
		{
			"bufferView":1,
			"componentType":5126,
			"count":172,
			"type":"VEC3"
		},
		{
			"bufferView":2,
			"componentType":5123,
			"count":492,
			"type":"SCALAR"
		},
		{
			"bufferView":3,
			"componentType":5126,
			"count":2652,
			"max":[
				0.025499999523162842,
				0.04125000163912773,
				0.04124998673796654
			],
			"min":[
				-5.421010862427522e-19,
				-0.04125000163912773,
				-0.041249990463256836
			],
			"type":"VEC3"
		},
		{
			"bufferView":4,
			"componentType":5126,
			"count":2652,
			"type":"VEC3"
		},
		{
			"bufferView":5,
			"componentType":5123,
			"count":8064,
			"type":"SCALAR"
		},
		{
			"bufferView":6,
			"componentType":5126,
			"count":172,
			"max":[
				0.001500000013038516,
				0.003980000037699938,
				0.0014958056854084134
			],
			"min":[
				-0.001500000013038516,
				0,
				-0.0014958056854084134
			],
			"type":"VEC3"
		},
		{
			"bufferView":7,
			"componentType":5126,
			"count":172,
			"type":"VEC3"
		},
		{
			"bufferView":8,
			"componentType":5126,
			"count":2652,
			"max":[
				0.025499999523162842,
				0.04125000163912773,
				0.04124998673796654
			],
			"min":[
				-5.421010862427522e-19,
				-0.04125000163912773,
				-0.041249990463256836
			],
			"type":"VEC3"
		},
		{
			"bufferView":9,
			"componentType":5126,
			"count":2652,
			"type":"VEC3"
		},
		{
			"bufferView":10,
			"componentType":5126,
			"count":3914,
			"max":[
				0.10999999940395355,
				0.04125000163912773,
				0.03424999862909317
			],
			"min":[
				-0.04125000163912773,
				-0.04125000163912773,
				-0.048250000923871994
			],
			"type":"VEC3"
		},
		{
			"bufferView":11,
			"componentType":5126,
			"count":3914,
			"type":"VEC3"
		},
		{
			"bufferView":12,
			"componentType":5123,
			"count":21702,
			"type":"SCALAR"
		},
		{
			"bufferView":13,
			"componentType":5126,
			"count":3833,
			"max":[
				0.10999999940395355,
				0.04125000163912773,
				0.034397438168525696
			],
			"min":[
				-0.04125000163912773,
				-0.04125000163912773,
				-0.048250000923871994
			],
			"type":"VEC3"
		},
		{
			"bufferView":14,
			"componentType":5126,
			"count":3833,
			"type":"VEC3"
		},
		{
			"bufferView":15,
			"componentType":5123,
			"count":21774,
			"type":"SCALAR"
		},
		{
			"bufferView":16,
			"componentType":5126,
			"count":4260,
			"max":[
				0.04192826896905899,
				0.01600000075995922,
				0.020871054381132126
			],
			"min":[
				-0.0442500002682209,
				-0.007000000216066837,
				-0.04424889758229256
			],
			"type":"VEC3"
		},
		{
			"bufferView":17,
			"componentType":5126,
			"count":4260,
			"type":"VEC3"
		},
		{
			"bufferView":18,
			"componentType":5123,
			"count":12948,
			"type":"SCALAR"
		},
		{
			"bufferView":19,
			"componentType":5126,
			"count":4260,
			"max":[
				0.04192826896905899,
				0.01600000075995922,
				0.020871054381132126
			],
			"min":[
				-0.0442500002682209,
				-0.007000000216066837,
				-0.04424889758229256
			],
			"type":"VEC3"
		},
		{
			"bufferView":20,
			"componentType":5126,
			"count":4260,
			"type":"VEC3"
		}
	],
	"bufferViews":[
		{
			"buffer":0,
			"byteLength":2064,
			"byteOffset":0,
			"target":34962
		},
		{
			"buffer":0,
			"byteLength":2064,
			"byteOffset":2064,
			"target":34962
		},
		{
			"buffer":0,
			"byteLength":984,
			"byteOffset":4128,
			"target":34963
		},
		{
			"buffer":0,
			"byteLength":31824,
			"byteOffset":5112,
			"target":34962
		},
		{
			"buffer":0,
			"byteLength":31824,
			"byteOffset":36936,
			"target":34962
		},
		{
			"buffer":0,
			"byteLength":16128,
			"byteOffset":68760,
			"target":34963
		},
		{
			"buffer":0,
			"byteLength":2064,
			"byteOffset":84888,
			"target":34962
		},
		{
			"buffer":0,
			"byteLength":2064,
			"byteOffset":86952,
			"target":34962
		},
		{
			"buffer":0,
			"byteLength":31824,
			"byteOffset":89016,
			"target":34962
		},
		{
			"buffer":0,
			"byteLength":31824,
			"byteOffset":120840,
			"target":34962
		},
		{
			"buffer":0,
			"byteLength":46968,
			"byteOffset":152664,
			"target":34962
		},
		{
			"buffer":0,
			"byteLength":46968,
			"byteOffset":199632,
			"target":34962
		},
		{
			"buffer":0,
			"byteLength":43404,
			"byteOffset":246600,
			"target":34963
		},
		{
			"buffer":0,
			"byteLength":45996,
			"byteOffset":290004,
			"target":34962
		},
		{
			"buffer":0,
			"byteLength":45996,
			"byteOffset":336000,
			"target":34962
		},
		{
			"buffer":0,
			"byteLength":43548,
			"byteOffset":381996,
			"target":34963
		},
		{
			"buffer":0,
			"byteLength":51120,
			"byteOffset":425544,
			"target":34962
		},
		{
			"buffer":0,
			"byteLength":51120,
			"byteOffset":476664,
			"target":34962
		},
		{
			"buffer":0,
			"byteLength":25896,
			"byteOffset":527784,
			"target":34963
		},
		{
			"buffer":0,
			"byteLength":51120,
			"byteOffset":553680,
			"target":34962
		},
		{
			"buffer":0,
			"byteLength":51120,
			"byteOffset":604800,
			"target":34962
		}
	],
	"buffers":[
		{
			"byteLength":655920,
			"uri":"KINOVA_Gen2_j1.bin"
		}
	]
}
