{
	"asset":{
		"generator":"Khronos glTF Blender I/O v4.1.63",
		"version":"2.0"
	},
	"scene":0,
	"scenes":[
		{
			"name":"Scene",
			"nodes":[
				8
			]
		}
	],
	"nodes":[
		{
			"mesh":0,
			"name":"MR 7580 0005"
		},
		{
			"children":[
				0
			],
			"name":"AM 7525 0005",
			"rotation":[
				-0.9807853102684021,
				0,
				0,
				0.19509027898311615
			],
			"translation":[
				0,
				-0.4099999964237213,
				0
			]
		},
		{
			"mesh":1,
			"name":"MT 8080 0002",
			"rotation":[
				0,
				0,
				0.7071068286895752,
				0.7071067094802856
			],
			"translation":[
				0.008500000461935997,
				-0.4099999964237213,
				0
			]
		},
		{
			"children":[
				1,
				2
			],
			"name":"AM 7575 0001_D\u0082faut"
		},
		{
			"children":[
				3
			],
			"name":"AM 7575 0006",
			"rotation":[
				0,
				-1,
				0,
				1.273053594380669e-16
			],
			"translation":[
				-0.0020000000949949026,
				0.6855000257492065,
				0
			]
		},
		{
			"mesh":2,
			"name":"MI 7584 0001_D\u0082faut"
		},
		{
			"mesh":3,
			"name":"MI 7584 0001_D\u0082faut001",
			"rotation":[
				0,
				-1,
				0,
				7.450581485102248e-09
			]
		},
		{
			"children":[
				5,
				6
			],
			"name":"AM 7584 0001",
			"rotation":[
				-0.13794969022274017,
				-0.13794969022274017,
				-0.6935199499130249,
				0.6935198903083801
			],
			"translation":[
				-0.0062500000931322575,
				0.6855000257492065,
				0
			]
		},
		{
			"children":[
				4,
				7
			],
			"name":"KR845+KR757",
			"translation":[
				0,
				-0.27549999952316284,
				0
			]
		}
	],
	"materials":[
		{
			"doubleSided":true,
			"name":"mat_2",
			"pbrMetallicRoughness":{
				"baseColorFactor":[
					0.7230551242828369,
					0.7230551242828369,
					0.7681511640548706,
					1
				],
				"metallicFactor":0
			}
		},
		{
			"doubleSided":true,
			"name":"mat_0",
			"pbrMetallicRoughness":{
				"metallicFactor":0
			}
		},
		{
			"doubleSided":true,
			"name":"mat_1",
			"pbrMetallicRoughness":{
				"baseColorFactor":[
					0.3049873411655426,
					0.3049873411655426,
					0.35640010237693787,
					1
				]
			}
		}
	],
	"meshes":[
		{
			"name":"MR 7580 0005",
			"primitives":[
				{
					"attributes":{
						"POSITION":0,
						"NORMAL":1
					},
					"indices":2,
					"material":0
				}
			]
		},
		{
			"name":"MT 8080 0002",
			"primitives":[
				{
					"attributes":{
						"POSITION":3,
						"NORMAL":4
					},
					"indices":5,
					"material":1
				},
				{
					"attributes":{
						"POSITION":6,
						"NORMAL":7
					},
					"indices":8,
					"material":2
				}
			]
		},
		{
			"name":"MI 7584 0001_D\u0082faut",
			"primitives":[
				{
					"attributes":{
						"POSITION":9,
						"NORMAL":10
					},
					"indices":11,
					"material":1
				}
			]
		},
		{
			"name":"MI 7584 0001_D\u0082faut.001",
			"primitives":[
				{
					"attributes":{
						"POSITION":12,
						"NORMAL":13
					},
					"indices":11,
					"material":1
				}
			]
		}
	],
	"accessors":[
		{
			"bufferView":0,
			"componentType":5126,
			"count":2652,
			"max":[
				0.025499999523162842,
				0.04125000163912773,
				0.04124998673796654
			],
			"min":[
				-5.421010862427522e-19,
				-0.04125000163912773,
				-0.041249990463256836
			],
			"type":"VEC3"
		},
		{
			"bufferView":1,
			"componentType":5126,
			"count":2652,
			"type":"VEC3"
		},
		{
			"bufferView":2,
			"componentType":5123,
			"count":8064,
			"type":"SCALAR"
		},
		{
			"bufferView":3,
			"componentType":5126,
			"count":2213,
			"max":[
				0.45124998688697815,
				0.004692624323070049,
				0.04125000163912773
			],
			"min":[
				-0.04125000163912773,
				-0.03274975344538689,
				-0.04125000163912773
			],
			"type":"VEC3"
		},
		{
			"bufferView":4,
			"componentType":5126,
			"count":2213,
			"type":"VEC3"
		},
		{
			"bufferView":5,
			"componentType":5123,
			"count":11754,
			"type":"SCALAR"
		},
		{
			"bufferView":6,
			"componentType":5126,
			"count":2180,
			"max":[
				0.45124998688697815,
				0.006172381807118654,
				0.04125000163912773
			],
			"min":[
				-0.04125000163912773,
				-0.03424486145377159,
				-0.04125000163912773
			],
			"type":"VEC3"
		},
		{
			"bufferView":7,
			"componentType":5126,
			"count":2180,
			"type":"VEC3"
		},
		{
			"bufferView":8,
			"componentType":5123,
			"count":11964,
			"type":"SCALAR"
		},
		{
			"bufferView":9,
			"componentType":5126,
			"count":4260,
			"max":[
				0.04192826896905899,
				0.01600000075995922,
				0.020871054381132126
			],
			"min":[
				-0.0442500002682209,
				-0.007000000216066837,
				-0.04424889758229256
			],
			"type":"VEC3"
		},
		{
			"bufferView":10,
			"componentType":5126,
			"count":4260,
			"type":"VEC3"
		},
		{
			"bufferView":11,
			"componentType":5123,
			"count":12948,
			"type":"SCALAR"
		},
		{
			"bufferView":12,
			"componentType":5126,
			"count":4260,
			"max":[
				0.04192826896905899,
				0.01600000075995922,
				0.020871054381132126
			],
			"min":[
				-0.0442500002682209,
				-0.007000000216066837,
				-0.04424889758229256
			],
			"type":"VEC3"
		},
		{
			"bufferView":13,
			"componentType":5126,
			"count":4260,
			"type":"VEC3"
		}
	],
	"bufferViews":[
		{
			"buffer":0,
			"byteLength":31824,
			"byteOffset":0,
			"target":34962
		},
		{
			"buffer":0,
			"byteLength":31824,
			"byteOffset":31824,
			"target":34962
		},
		{
			"buffer":0,
			"byteLength":16128,
			"byteOffset":63648,
			"target":34963
		},
		{
			"buffer":0,
			"byteLength":26556,
			"byteOffset":79776,
			"target":34962
		},
		{
			"buffer":0,
			"byteLength":26556,
			"byteOffset":106332,
			"target":34962
		},
		{
			"buffer":0,
			"byteLength":23508,
			"byteOffset":132888,
			"target":34963
		},
		{
			"buffer":0,
			"byteLength":26160,
			"byteOffset":156396,
			"target":34962
		},
		{
			"buffer":0,
			"byteLength":26160,
			"byteOffset":182556,
			"target":34962
		},
		{
			"buffer":0,
			"byteLength":23928,
			"byteOffset":208716,
			"target":34963
		},
		{
			"buffer":0,
			"byteLength":51120,
			"byteOffset":232644,
			"target":34962
		},
		{
			"buffer":0,
			"byteLength":51120,
			"byteOffset":283764,
			"target":34962
		},
		{
			"buffer":0,
			"byteLength":25896,
			"byteOffset":334884,
			"target":34963
		},
		{
			"buffer":0,
			"byteLength":51120,
			"byteOffset":360780,
			"target":34962
		},
		{
			"buffer":0,
			"byteLength":51120,
			"byteOffset":411900,
			"target":34962
		}
	],
	"buffers":[
		{
			"byteLength":463020,
			"uri":"KINOVA_Gen2_j2.bin"
		}
	]
}
