{
	"asset":{
		"generator":"Khronos glTF Blender I/O v4.1.63",
		"version":"2.0"
	},
	"scene":0,
	"scenes":[
		{
			"name":"Scene",
			"nodes":[
				8
			]
		}
	],
	"nodes":[
		{
			"mesh":0,
			"name":"MI 5864 0001_D\u0082faut002"
		},
		{
			"mesh":1,
			"name":"MI 5864 0001_D\u0082faut003",
			"rotation":[
				0,
				1,
				0,
				2.7755575615628914e-17
			]
		},
		{
			"children":[
				0,
				1
			],
			"name":"AM 5864 0002",
			"translation":[
				0.009750000201165676,
				0.8889999985694885,
				0
			]
		},
		{
			"mesh":2,
			"name":"MR 7580 0006"
		},
		{
			"children":[
				3
			],
			"name":"AM 7525 0006",
			"rotation":[
				0.19509035348892212,
				0,
				0,
				0.9807853102684021
			]
		},
		{
			"mesh":3,
			"name":"MT 8062 0001_D\u0082faut",
			"rotation":[
				-0.7071068286895752,
				0.7071068286895752,
				0,
				8.169169010873781e-24
			],
			"translation":[
				0.008500000461935997,
				0,
				0
			]
		},
		{
			"children":[
				4,
				5
			],
			"name":"AM 7558 0001_D\u0082faut"
		},
		{
			"children":[
				6
			],
			"name":"AM 7558 0003",
			"rotation":[
				-1,
				0,
				0,
				1.1102230246251565e-16
			],
			"translation":[
				-0.001500000013038516,
				0.6855000257492065,
				0
			]
		},
		{
			"children":[
				2,
				7
			],
			"name":"KR845+KR757",
			"translation":[
				0,
				-0.6855000257492065,
				0
			]
		}
	],
	"materials":[
		{
			"doubleSided":true,
			"name":"mat_1",
			"pbrMetallicRoughness":{
				"metallicFactor":0
			}
		},
		{
			"doubleSided":true,
			"name":"mat_2",
			"pbrMetallicRoughness":{
				"baseColorFactor":[
					0.7230551242828369,
					0.7230551242828369,
					0.7681511640548706,
					1
				],
				"metallicFactor":0
			}
		},
		{
			"doubleSided":true,
			"name":"mat_0",
			"pbrMetallicRoughness":{
				"baseColorFactor":[
					0.3049873411655426,
					0.3049873411655426,
					0.35640010237693787,
					1
				]
			}
		}
	],
	"meshes":[
		{
			"name":"MI 5864 0001_D\u0082faut002",
			"primitives":[
				{
					"attributes":{
						"POSITION":0,
						"NORMAL":1
					},
					"indices":2,
					"material":0
				}
			]
		},
		{
			"name":"MI 5864 0001_D\u0082faut002.001",
			"primitives":[
				{
					"attributes":{
						"POSITION":3,
						"NORMAL":4
					},
					"indices":2,
					"material":0
				}
			]
		},
		{
			"name":"MR 7580 0006",
			"primitives":[
				{
					"attributes":{
						"POSITION":5,
						"NORMAL":6
					},
					"indices":7,
					"material":1
				}
			]
		},
		{
			"name":"MT 8062 0001_D\u0082faut",
			"primitives":[
				{
					"attributes":{
						"POSITION":8,
						"NORMAL":9
					},
					"indices":10,
					"material":2
				},
				{
					"attributes":{
						"POSITION":11,
						"NORMAL":12
					},
					"indices":13,
					"material":0
				}
			]
		}
	],
	"accessors":[
		{
			"bufferView":0,
			"componentType":5126,
			"count":4201,
			"max":[
				0.03449999913573265,
				0.013500000350177288,
				0.004922053311020136
			],
			"min":[
				-0.03449999913573265,
				-0.006000000052154064,
				-0.034475646913051605
			],
			"type":"VEC3"
		},
		{
			"bufferView":1,
			"componentType":5126,
			"count":4201,
			"type":"VEC3"
		},
		{
			"bufferView":2,
			"componentType":5123,
			"count":13116,
			"type":"SCALAR"
		},
		{
			"bufferView":3,
			"componentType":5126,
			"count":4201,
			"max":[
				0.03449999913573265,
				0.013500000350177288,
				0.004922053311020136
			],
			"min":[
				-0.03449999913573265,
				-0.006000000052154064,
				-0.034475646913051605
			],
			"type":"VEC3"
		},
		{
			"bufferView":4,
			"componentType":5126,
			"count":4201,
			"type":"VEC3"
		},
		{
			"bufferView":5,
			"componentType":5126,
			"count":2652,
			"max":[
				0.025499999523162842,
				0.04125000163912773,
				0.04124998673796654
			],
			"min":[
				-5.421010862427522e-19,
				-0.04125000163912773,
				-0.041249990463256836
			],
			"type":"VEC3"
		},
		{
			"bufferView":6,
			"componentType":5126,
			"count":2652,
			"type":"VEC3"
		},
		{
			"bufferView":7,
			"componentType":5123,
			"count":8064,
			"type":"SCALAR"
		},
		{
			"bufferView":8,
			"componentType":5126,
			"count":1892,
			"max":[
				0.20000000298023224,
				0.028750000521540642,
				0.04125000163912773
			],
			"min":[
				-0.04125000163912773,
				-0.03427194803953171,
				-0.04125000163912773
			],
			"type":"VEC3"
		},
		{
			"bufferView":9,
			"componentType":5126,
			"count":1892,
			"type":"VEC3"
		},
		{
			"bufferView":10,
			"componentType":5123,
			"count":10284,
			"type":"SCALAR"
		},
		{
			"bufferView":11,
			"componentType":5126,
			"count":2200,
			"max":[
				0.20000000298023224,
				0.028750000521540642,
				0.04125000163912773
			],
			"min":[
				-0.04125000163912773,
				-0.03424999862909317,
				-0.04125000163912773
			],
			"type":"VEC3"
		},
		{
			"bufferView":12,
			"componentType":5126,
			"count":2200,
			"type":"VEC3"
		},
		{
			"bufferView":13,
			"componentType":5123,
			"count":11676,
			"type":"SCALAR"
		}
	],
	"bufferViews":[
		{
			"buffer":0,
			"byteLength":50412,
			"byteOffset":0,
			"target":34962
		},
		{
			"buffer":0,
			"byteLength":50412,
			"byteOffset":50412,
			"target":34962
		},
		{
			"buffer":0,
			"byteLength":26232,
			"byteOffset":100824,
			"target":34963
		},
		{
			"buffer":0,
			"byteLength":50412,
			"byteOffset":127056,
			"target":34962
		},
		{
			"buffer":0,
			"byteLength":50412,
			"byteOffset":177468,
			"target":34962
		},
		{
			"buffer":0,
			"byteLength":31824,
			"byteOffset":227880,
			"target":34962
		},
		{
			"buffer":0,
			"byteLength":31824,
			"byteOffset":259704,
			"target":34962
		},
		{
			"buffer":0,
			"byteLength":16128,
			"byteOffset":291528,
			"target":34963
		},
		{
			"buffer":0,
			"byteLength":22704,
			"byteOffset":307656,
			"target":34962
		},
		{
			"buffer":0,
			"byteLength":22704,
			"byteOffset":330360,
			"target":34962
		},
		{
			"buffer":0,
			"byteLength":20568,
			"byteOffset":353064,
			"target":34963
		},
		{
			"buffer":0,
			"byteLength":26400,
			"byteOffset":373632,
			"target":34962
		},
		{
			"buffer":0,
			"byteLength":26400,
			"byteOffset":400032,
			"target":34962
		},
		{
			"buffer":0,
			"byteLength":23352,
			"byteOffset":426432,
			"target":34963
		}
	],
	"buffers":[
		{
			"byteLength":449784,
			"uri":"KINOVA_Gen2_j3.bin"
		}
	]
}
