{
	"asset":{
		"generator":"Khronos glTF Blender I/O v4.1.63",
		"version":"2.0"
	},
	"scene":0,
	"scenes":[
		{
			"name":"Scene",
			"nodes":[
				15
			]
		}
	],
	"nodes":[
		{
			"mesh":0,
			"name":"MR 5862 0006"
		},
		{
			"children":[
				0
			],
			"name":"AM 5818 0008",
			"rotation":[
				-0.5,
				0.5,
				0.5,
				0.5
			],
			"translation":[
				0.00021650634880643338,
				0.00012499999138526618,
				0.007000000216066837
			]
		},
		{
			"mesh":1,
			"name":"MT 0062 0003_D\u0082faut",
			"translation":[
				0.00021650634880643338,
				0.00012499999138526618,
				-0.08799999952316284
			]
		},
		{
			"children":[
				1,
				2
			],
			"name":"AM 0058 0005",
			"translation":[
				-0.00021650634880643338,
				-0.0001250000059371814,
				-0.007000000681728125
			]
		},
		{
			"children":[
				3
			],
			"name":"AM 0058 0006",
			"rotation":[
				0.70710688829422,
				0,
				0,
				0.7071066498756409
			],
			"translation":[
				0.009750000201165676,
				1.1004999876022339,
				0
			]
		},
		{
			"mesh":2,
			"name":"MI 3636 0001_D\u0082faut"
		},
		{
			"children":[
				5
			],
			"name":"MI 3636 0001",
			"rotation":[
				-0.5,
				-0.5,
				0.5,
				0.5
			],
			"translation":[
				0,
				-0.013576163910329342,
				0
			]
		},
		{
			"children":[
				6
			],
			"name":"AM 3240 0004_D\u0082faut",
			"rotation":[
				-0.9797677397727966,
				-0.1727595031261444,
				-0.09494853019714355,
				0.034558434039354324
			],
			"translation":[
				-0.02264053374528885,
				1.1895612478256226,
				-0.00022143613023217767
			]
		},
		{
			"mesh":3,
			"name":"MI 3636 0001_D\u0082faut001"
		},
		{
			"children":[
				8
			],
			"name":"MI 3636 0002",
			"rotation":[
				-0.5,
				-0.5,
				0.5,
				0.5
			],
			"translation":[
				0,
				-0.013576142489910126,
				0
			]
		},
		{
			"children":[
				9
			],
			"name":"AM 3240 0004_D\u0082faut001",
			"rotation":[
				-0.0912470817565918,
				-0.015855325385928154,
				0.9805713891983032,
				0.17292283475399017
			],
			"translation":[
				0.038036588579416275,
				1.1896497011184692,
				0.022474734112620354
			]
		},
		{
			"mesh":4,
			"name":"MI 3636 0001_D\u0082faut002"
		},
		{
			"children":[
				11
			],
			"name":"MI 3636 0003",
			"rotation":[
				-0.5,
				-0.5,
				0.5,
				0.5
			],
			"translation":[
				0,
				-0.013576149940490723,
				0
			]
		},
		{
			"children":[
				12
			],
			"name":"AM 3240 0004_D\u0082faut002",
			"rotation":[
				0.07561548054218292,
				0.021538304165005684,
				0.9818888902664185,
				0.17237357795238495
			],
			"translation":[
				0.03759229555726051,
				1.1899211406707764,
				-0.022292790934443474
			]
		},
		{
			"mesh":5,
			"name":"MO 0000 0012_D\u0082faut",
			"rotation":[
				0.70710688829422,
				0,
				0,
				0.7071066498756409
			],
			"translation":[
				0.009750000201165676,
				1.1955000162124634,
				0
			]
		},
		{
			"children":[
				4,
				7,
				10,
				13,
				14
			],
			"name":"KR845+KR757",
			"translation":[
				-0.009750000201165676,
				-1.1004999876022339,
				0
			]
		}
	],
	"materials":[
		{
			"doubleSided":true,
			"name":"mat_4",
			"pbrMetallicRoughness":{
				"baseColorFactor":[
					0.9408318996429443,
					0.9408315420150757,
					1,
					1
				]
			}
		},
		{
			"doubleSided":true,
			"name":"mat_2",
			"pbrMetallicRoughness":{}
		},
		{
			"doubleSided":true,
			"name":"mat_3",
			"pbrMetallicRoughness":{
				"baseColorFactor":[
					0.3049873411655426,
					0.3049873411655426,
					0.35640010237693787,
					1
				]
			}
		},
		{
			"doubleSided":true,
			"name":"mat_1",
			"pbrMetallicRoughness":{
				"baseColorFactor":[
					0.6898906826972961,
					0.7449837327003479,
					1,
					1
				]
			}
		},
		{
			"doubleSided":true,
			"name":"mat_0",
			"pbrMetallicRoughness":{
				"baseColorFactor":[
					0.9205989837646484,
					1,
					1,
					1
				]
			}
		}
	],
	"meshes":[
		{
			"name":"MR 5862 0006",
			"primitives":[
				{
					"attributes":{
						"POSITION":0,
						"NORMAL":1
					},
					"indices":2,
					"material":0
				}
			]
		},
		{
			"name":"MT 0062 0003_D\u0082faut",
			"primitives":[
				{
					"attributes":{
						"POSITION":3,
						"NORMAL":4
					},
					"indices":5,
					"material":1
				},
				{
					"attributes":{
						"POSITION":6,
						"NORMAL":7
					},
					"indices":8,
					"material":2
				}
			]
		},
		{
			"name":"MI 3636 0001_D\u0082faut",
			"primitives":[
				{
					"attributes":{
						"POSITION":9,
						"NORMAL":10
					},
					"indices":11,
					"material":3
				}
			]
		},
		{
			"name":"MI 3636 0001_D\u0082faut.001",
			"primitives":[
				{
					"attributes":{
						"POSITION":12,
						"NORMAL":13
					},
					"indices":11,
					"material":3
				}
			]
		},
		{
			"name":"MI 3636 0001_D\u0082faut.002",
			"primitives":[
				{
					"attributes":{
						"POSITION":14,
						"NORMAL":15
					},
					"indices":11,
					"material":3
				}
			]
		},
		{
			"name":"MO 0000 0012_D\u0082faut",
			"primitives":[
				{
					"attributes":{
						"POSITION":16,
						"NORMAL":17
					},
					"indices":18,
					"material":4
				}
			]
		}
	],
	"accessors":[
		{
			"bufferView":0,
			"componentType":5126,
			"count":2312,
			"max":[
				0.017999999225139618,
				0.03150000050663948,
				0.03150000050663948
			],
			"min":[
				-2.5243550166076616e-32,
				-0.03150000050663948,
				-0.031499870121479034
			],
			"type":"VEC3"
		},
		{
			"bufferView":1,
			"componentType":5126,
			"count":2312,
			"type":"VEC3"
		},
		{
			"bufferView":2,
			"componentType":5123,
			"count":7020,
			"type":"SCALAR"
		},
		{
			"bufferView":3,
			"componentType":5126,
			"count":5885,
			"max":[
				0.0482822023332119,
				0.044341303408145905,
				0.08799999952316284
			],
			"min":[
				-0.0519498810172081,
				-0.04430198296904564,
				-0.008245888166129589
			],
			"type":"VEC3"
		},
		{
			"bufferView":4,
			"componentType":5126,
			"count":5885,
			"type":"VEC3"
		},
		{
			"bufferView":5,
			"componentType":5123,
			"count":23685,
			"type":"SCALAR"
		},
		{
			"bufferView":6,
			"componentType":5126,
			"count":4237,
			"max":[
				0.050857506692409515,
				0.0463775210082531,
				0.08799999952316284
			],
			"min":[
				-0.05423650145530701,
				-0.046374037861824036,
				-0.01015039999037981
			],
			"type":"VEC3"
		},
		{
			"bufferView":7,
			"componentType":5126,
			"count":4237,
			"type":"VEC3"
		},
		{
			"bufferView":8,
			"componentType":5123,
			"count":20523,
			"type":"SCALAR"
		},
		{
			"bufferView":9,
			"componentType":5126,
			"count":9193,
			"max":[
				0.019876088947057724,
				0.01838386245071888,
				0.018273796886205673
			],
			"min":[
				-0.015942586585879326,
				-0.01838386245071888,
				-0.018357757478952408
			],
			"type":"VEC3"
		},
		{
			"bufferView":10,
			"componentType":5126,
			"count":9193,
			"type":"VEC3"
		},
		{
			"bufferView":11,
			"componentType":5123,
			"count":34392,
			"type":"SCALAR"
		},
		{
			"bufferView":12,
			"componentType":5126,
			"count":9193,
			"max":[
				0.019876088947057724,
				0.01838386245071888,
				0.018273796886205673
			],
			"min":[
				-0.015942586585879326,
				-0.01838386245071888,
				-0.018357757478952408
			],
			"type":"VEC3"
		},
		{
			"bufferView":13,
			"componentType":5126,
			"count":9193,
			"type":"VEC3"
		},
		{
			"bufferView":14,
			"componentType":5126,
			"count":9193,
			"max":[
				0.019876088947057724,
				0.01838386245071888,
				0.018273796886205673
			],
			"min":[
				-0.015942586585879326,
				-0.01838386245071888,
				-0.018357757478952408
			],
			"type":"VEC3"
		},
		{
			"bufferView":15,
			"componentType":5126,
			"count":9193,
			"type":"VEC3"
		},
		{
			"bufferView":16,
			"componentType":5126,
			"count":9320,
			"max":[
				0.023600038141012192,
				0.02576351910829544,
				0.005664920900017023
			],
			"min":[
				-0.019495736807584763,
				-0.02576134353876114,
				-0.021835973486304283
			],
			"type":"VEC3"
		},
		{
			"bufferView":17,
			"componentType":5126,
			"count":9320,
			"type":"VEC3"
		},
		{
			"bufferView":18,
			"componentType":5123,
			"count":40029,
			"type":"SCALAR"
		}
	],
	"bufferViews":[
		{
			"buffer":0,
			"byteLength":27744,
			"byteOffset":0,
			"target":34962
		},
		{
			"buffer":0,
			"byteLength":27744,
			"byteOffset":27744,
			"target":34962
		},
		{
			"buffer":0,
			"byteLength":14040,
			"byteOffset":55488,
			"target":34963
		},
		{
			"buffer":0,
			"byteLength":70620,
			"byteOffset":69528,
			"target":34962
		},
		{
			"buffer":0,
			"byteLength":70620,
			"byteOffset":140148,
			"target":34962
		},
		{
			"buffer":0,
			"byteLength":47370,
			"byteOffset":210768,
			"target":34963
		},
		{
			"buffer":0,
			"byteLength":50844,
			"byteOffset":258140,
			"target":34962
		},
		{
			"buffer":0,
			"byteLength":50844,
			"byteOffset":308984,
			"target":34962
		},
		{
			"buffer":0,
			"byteLength":41046,
			"byteOffset":359828,
			"target":34963
		},
		{
			"buffer":0,
			"byteLength":110316,
			"byteOffset":400876,
			"target":34962
		},
		{
			"buffer":0,
			"byteLength":110316,
			"byteOffset":511192,
			"target":34962
		},
		{
			"buffer":0,
			"byteLength":68784,
			"byteOffset":621508,
			"target":34963
		},
		{
			"buffer":0,
			"byteLength":110316,
			"byteOffset":690292,
			"target":34962
		},
		{
			"buffer":0,
			"byteLength":110316,
			"byteOffset":800608,
			"target":34962
		},
		{
			"buffer":0,
			"byteLength":110316,
			"byteOffset":910924,
			"target":34962
		},
		{
			"buffer":0,
			"byteLength":110316,
			"byteOffset":1021240,
			"target":34962
		},
		{
			"buffer":0,
			"byteLength":111840,
			"byteOffset":1131556,
			"target":34962
		},
		{
			"buffer":0,
			"byteLength":111840,
			"byteOffset":1243396,
			"target":34962
		},
		{
			"buffer":0,
			"byteLength":80058,
			"byteOffset":1355236,
			"target":34963
		}
	],
	"buffers":[
		{
			"byteLength":1435296,
			"uri":"KINOVA_Gen2_j6.bin"
		}
	]
}
