{
	"asset":{
		"generator":"Khronos glTF Blender I/O v4.1.63",
		"version":"2.0"
	},
	"scene":0,
	"scenes":[
		{
			"name":"Scene",
			"nodes":[
				12
			]
		}
	],
	"nodes":[
		{
			"mesh":0,
			"name":"MA 0323 0001_D\u0082faut001",
			"rotation":[
				0.5,
				0.5,
				-0.5,
				0.5
			],
			"translation":[
				0.010499999858438969,
				-0.023576149716973305,
				0
			]
		},
		{
			"mesh":1,
			"name":"MH 0204 0004_D\u0082faut",
			"rotation":[
				0.06558538228273392,
				0.7040586471557617,
				-0.15519067645072937,
				0.6898665428161621
			],
			"translation":[
				-0.019952096045017242,
				-0.08317985385656357,
				0
			]
		},
		{
			"mesh":2,
			"name":"MH 0204 0004_D\u0082faut001",
			"rotation":[
				0.5051015019416809,
				0.4948461353778839,
				0.32746422290802,
				0.6267113089561462
			],
			"translation":[
				-0.024587351828813553,
				-0.09744569659233093,
				0
			]
		},
		{
			"mesh":3,
			"name":"MI 1502 0001_D\u0082faut",
			"rotation":[
				-0.4156269431114197,
				0.5720614194869995,
				0.4156269431114197,
				0.5720614194869995
			],
			"translation":[
				-0.021212629973888397,
				-0.07751297205686569,
				0
			]
		},
		{
			"mesh":4,
			"name":"MI 2253 0001_molded_version"
		},
		{
			"mesh":5,
			"name":"MI 2253 0001_molded_version001"
		},
		{
			"children":[
				4,
				5
			],
			"name":"MI 2253 0001_molded_version002"
		},
		{
			"children":[
				6
			],
			"name":"MI 2253 0001",
			"rotation":[
				0.3799281716346741,
				-0.5963678359985352,
				-0.5963678359985352,
				0.3799281716346741
			],
			"translation":[
				-0.0037858160212635994,
				-0.06530042737722397,
				0
			]
		},
		{
			"mesh":6,
			"name":"MI 2256 0001_D\u0082faut"
		},
		{
			"mesh":7,
			"name":"MI 2256 0001_D\u0082faut001"
		},
		{
			"children":[
				8,
				9
			],
			"name":"MI 2256 0001_D\u0082faut002"
		},
		{
			"children":[
				10
			],
			"name":"MI 2256 0001",
			"rotation":[
				0.4304593801498413,
				-0.5609855055809021,
				-0.5609855651855469,
				0.4304593801498413
			],
			"translation":[
				0.005152732599526644,
				-0.02421390637755394,
				0
			]
		},
		{
			"children":[
				0,
				1,
				2,
				3,
				7,
				11
			],
			"name":"AM 3240 0004_D\u0082faut",
			"rotation":[
				1,
				0,
				0,
				0
			],
			"translation":[
				-0.010499999858438969,
				-0.023600000888109207,
				0
			]
		}
	],
	"materials":[
		{
			"doubleSided":true,
			"name":"mat_3",
			"pbrMetallicRoughness":{
				"baseColorFactor":[
					0.3762621581554413,
					0.34191444516181946,
					0.3049873411655426,
					1
				]
			}
		},
		{
			"doubleSided":true,
			"name":"mat_2",
			"pbrMetallicRoughness":{
				"baseColorFactor":[
					0.3762621581554413,
					0.34191444516181946,
					0.30054381489753723,
					1
				]
			}
		},
		{
			"doubleSided":true,
			"name":"mat_1",
			"pbrMetallicRoughness":{
				"baseColorFactor":[
					0.05126946419477463,
					0.05126946419477463,
					0.05126946419477463,
					1
				]
			}
		},
		{
			"doubleSided":true,
			"name":"mat_0",
			"pbrMetallicRoughness":{
				"baseColorFactor":[
					0.5271151661872864,
					0.5271151661872864,
					0.5271151661872864,
					1
				]
			}
		}
	],
	"meshes":[
		{
			"name":"MA 0323 0001_D\u0082faut001",
			"primitives":[
				{
					"attributes":{
						"POSITION":0,
						"NORMAL":1
					},
					"indices":2,
					"material":0
				}
			]
		},
		{
			"name":"MH 0204 0004_D\u0082faut",
			"primitives":[
				{
					"attributes":{
						"POSITION":3,
						"NORMAL":4
					},
					"indices":5,
					"material":1
				}
			]
		},
		{
			"name":"MH 0204 0004_D\u0082faut001",
			"primitives":[
				{
					"attributes":{
						"POSITION":6,
						"NORMAL":7
					},
					"indices":8,
					"material":1
				}
			]
		},
		{
			"name":"MI 1502 0001_D\u0082faut",
			"primitives":[
				{
					"attributes":{
						"POSITION":9,
						"NORMAL":10
					},
					"indices":11,
					"material":2
				}
			]
		},
		{
			"name":"MI 2253 0001_molded_version",
			"primitives":[
				{
					"attributes":{
						"POSITION":12,
						"NORMAL":13
					},
					"indices":14,
					"material":3
				}
			]
		},
		{
			"name":"MI 2253 0001_molded_version001",
			"primitives":[
				{
					"attributes":{
						"POSITION":15,
						"NORMAL":16
					},
					"indices":17,
					"material":2
				}
			]
		},
		{
			"name":"MI 2256 0001_D\u0082faut",
			"primitives":[
				{
					"attributes":{
						"POSITION":18,
						"NORMAL":19
					},
					"indices":20,
					"material":3
				}
			]
		},
		{
			"name":"MI 2256 0001_D\u0082faut001",
			"primitives":[
				{
					"attributes":{
						"POSITION":21,
						"NORMAL":22
					},
					"indices":23,
					"material":2
				}
			]
		}
	],
	"accessors":[
		{
			"bufferView":0,
			"componentType":5126,
			"count":960,
			"max":[
				0.011350000277161598,
				0.001500000013038516,
				0.001500000013038516
			],
			"min":[
				-0.011350000277161598,
				-0.001500000013038516,
				-0.001500000013038516
			],
			"type":"VEC3"
		},
		{
			"bufferView":1,
			"componentType":5126,
			"count":960,
			"type":"VEC3"
		},
		{
			"bufferView":2,
			"componentType":5123,
			"count":2892,
			"type":"SCALAR"
		},
		{
			"bufferView":3,
			"componentType":5126,
			"count":1607,
			"max":[
				0.0020000000949949026,
				0.0020000000949949026,
				3.552713847545346e-18
			],
			"min":[
				-0.0020000000949949026,
				-0.0020000000949949026,
				-0.00430000014603138
			],
			"type":"VEC3"
		},
		{
			"bufferView":4,
			"componentType":5126,
			"count":1607,
			"type":"VEC3"
		},
		{
			"bufferView":5,
			"componentType":5123,
			"count":7176,
			"type":"SCALAR"
		},
		{
			"bufferView":6,
			"componentType":5126,
			"count":1607,
			"max":[
				0.0020000000949949026,
				0.0020000000949949026,
				0
			],
			"min":[
				-0.0020000000949949026,
				-0.0020000000949949026,
				-0.00430000014603138
			],
			"type":"VEC3"
		},
		{
			"bufferView":7,
			"componentType":5126,
			"count":1607,
			"type":"VEC3"
		},
		{
			"bufferView":8,
			"componentType":5123,
			"count":7176,
			"type":"SCALAR"
		},
		{
			"bufferView":9,
			"componentType":5126,
			"count":1978,
			"max":[
				0.009670252911746502,
				0.0012499999720603228,
				5.684342156072553e-17
			],
			"min":[
				-0.009670490399003029,
				-7.105427695090692e-18,
				-0.02500000037252903
			],
			"type":"VEC3"
		},
		{
			"bufferView":10,
			"componentType":5126,
			"count":1978,
			"type":"VEC3"
		},
		{
			"bufferView":11,
			"componentType":5123,
			"count":7650,
			"type":"SCALAR"
		},
		{
			"bufferView":12,
			"componentType":5126,
			"count":6265,
			"max":[
				0.04341961443424225,
				0.011250000447034836,
				0.014574008993804455
			],
			"min":[
				-0.00940798595547676,
				-0.011250000447034836,
				-0.005067282356321812
			],
			"type":"VEC3"
		},
		{
			"bufferView":13,
			"componentType":5126,
			"count":6265,
			"type":"VEC3"
		},
		{
			"bufferView":14,
			"componentType":5123,
			"count":24078,
			"type":"SCALAR"
		},
		{
			"bufferView":15,
			"componentType":5126,
			"count":10342,
			"max":[
				0.04366597160696983,
				0.011250000447034836,
				0.0052999998442828655
			],
			"min":[
				-0.005000002682209015,
				-0.011250000447034836,
				-0.006500076036900282
			],
			"type":"VEC3"
		},
		{
			"bufferView":16,
			"componentType":5126,
			"count":10342,
			"type":"VEC3"
		},
		{
			"bufferView":17,
			"componentType":5123,
			"count":32817,
			"type":"SCALAR"
		},
		{
			"bufferView":18,
			"componentType":5126,
			"count":10760,
			"max":[
				0.04862041026353836,
				0.011250000447034836,
				0.017904523760080338
			],
			"min":[
				-0.00826416164636612,
				-0.011250000447034836,
				-0.010164259001612663
			],
			"type":"VEC3"
		},
		{
			"bufferView":19,
			"componentType":5126,
			"count":10760,
			"type":"VEC3"
		},
		{
			"bufferView":20,
			"componentType":5123,
			"count":39915,
			"type":"SCALAR"
		},
		{
			"bufferView":21,
			"componentType":5126,
			"count":11319,
			"max":[
				0.035863231867551804,
				0.011250000447034836,
				0.0016877346206456423
			],
			"min":[
				0.007262720726430416,
				-0.011250000447034836,
				-0.007225167937576771
			],
			"type":"VEC3"
		},
		{
			"bufferView":22,
			"componentType":5126,
			"count":11319,
			"type":"VEC3"
		},
		{
			"bufferView":23,
			"componentType":5123,
			"count":37356,
			"type":"SCALAR"
		}
	],
	"bufferViews":[
		{
			"buffer":0,
			"byteLength":11520,
			"byteOffset":0,
			"target":34962
		},
		{
			"buffer":0,
			"byteLength":11520,
			"byteOffset":11520,
			"target":34962
		},
		{
			"buffer":0,
			"byteLength":5784,
			"byteOffset":23040,
			"target":34963
		},
		{
			"buffer":0,
			"byteLength":19284,
			"byteOffset":28824,
			"target":34962
		},
		{
			"buffer":0,
			"byteLength":19284,
			"byteOffset":48108,
			"target":34962
		},
		{
			"buffer":0,
			"byteLength":14352,
			"byteOffset":67392,
			"target":34963
		},
		{
			"buffer":0,
			"byteLength":19284,
			"byteOffset":81744,
			"target":34962
		},
		{
			"buffer":0,
			"byteLength":19284,
			"byteOffset":101028,
			"target":34962
		},
		{
			"buffer":0,
			"byteLength":14352,
			"byteOffset":120312,
			"target":34963
		},
		{
			"buffer":0,
			"byteLength":23736,
			"byteOffset":134664,
			"target":34962
		},
		{
			"buffer":0,
			"byteLength":23736,
			"byteOffset":158400,
			"target":34962
		},
		{
			"buffer":0,
			"byteLength":15300,
			"byteOffset":182136,
			"target":34963
		},
		{
			"buffer":0,
			"byteLength":75180,
			"byteOffset":197436,
			"target":34962
		},
		{
			"buffer":0,
			"byteLength":75180,
			"byteOffset":272616,
			"target":34962
		},
		{
			"buffer":0,
			"byteLength":48156,
			"byteOffset":347796,
			"target":34963
		},
		{
			"buffer":0,
			"byteLength":124104,
			"byteOffset":395952,
			"target":34962
		},
		{
			"buffer":0,
			"byteLength":124104,
			"byteOffset":520056,
			"target":34962
		},
		{
			"buffer":0,
			"byteLength":65634,
			"byteOffset":644160,
			"target":34963
		},
		{
			"buffer":0,
			"byteLength":129120,
			"byteOffset":709796,
			"target":34962
		},
		{
			"buffer":0,
			"byteLength":129120,
			"byteOffset":838916,
			"target":34962
		},
		{
			"buffer":0,
			"byteLength":79830,
			"byteOffset":968036,
			"target":34963
		},
		{
			"buffer":0,
			"byteLength":135828,
			"byteOffset":1047868,
			"target":34962
		},
		{
			"buffer":0,
			"byteLength":135828,
			"byteOffset":1183696,
			"target":34962
		},
		{
			"buffer":0,
			"byteLength":74712,
			"byteOffset":1319524,
			"target":34963
		}
	],
	"buffers":[
		{
			"byteLength":1394236,
			"uri":"KINOVA_Gen2_finger.bin"
		}
	]
}
