{
	"asset":{
		"generator":"Khronos glTF Blender I/O v4.1.63",
		"version":"2.0"
	},
	"scene":0,
	"scenes":[
		{
			"name":"Scene",
			"nodes":[
				8
			]
		}
	],
	"nodes":[
		{
			"mesh":0,
			"name":"MI 5864 0001_D\u0082faut004"
		},
		{
			"mesh":1,
			"name":"MI 5864 0001_D\u0082faut005",
			"rotation":[
				0,
				1,
				0,
				2.7755575615628914e-17
			]
		},
		{
			"children":[
				0,
				1
			],
			"name":"AM 5864 0003",
			"rotation":[
				0,
				0,
				1,
				1.2442747764949773e-15
			],
			"translation":[
				0.009750000201165676,
				1.1039999723434448,
				0
			]
		},
		{
			"mesh":2,
			"name":"MR 5862 0005"
		},
		{
			"children":[
				3
			],
			"name":"AM 5818 0007",
			"rotation":[
				0.5,
				-0.5,
				0.5,
				0.5
			],
			"translation":[
				0.09650000184774399,
				0,
				0.0002500000118743628
			]
		},
		{
			"mesh":3,
			"name":"MT 6262 0007",
			"rotation":[
				0,
				-1,
				0,
				2.7755575615628914e-16
			]
		},
		{
			"children":[
				4,
				5
			],
			"name":"AM 5858 0009"
		},
		{
			"children":[
				6
			],
			"name":"KR824",
			"rotation":[
				-0.5,
				0.5,
				-0.5,
				0.5
			],
			"translation":[
				0.009750000201165676,
				1.093000054359436,
				0
			]
		},
		{
			"children":[
				2,
				7
			],
			"name":"KR845+KR757",
			"translation":[
				-0.009999999776482582,
				-0.9965000152587891,
				0
			]
		}
	],
	"materials":[
		{
			"doubleSided":true,
			"name":"mat_0",
			"pbrMetallicRoughness":{
				"metallicFactor":0
			}
		},
		{
			"doubleSided":true,
			"name":"mat_2",
			"pbrMetallicRoughness":{
				"baseColorFactor":[
					0.7230551242828369,
					0.7230551242828369,
					0.7681511640548706,
					1
				]
			}
		},
		{
			"doubleSided":true,
			"name":"mat_1",
			"pbrMetallicRoughness":{
				"baseColorFactor":[
					0.3049873411655426,
					0.3049873411655426,
					0.35640010237693787,
					1
				]
			}
		}
	],
	"meshes":[
		{
			"name":"MI 5864 0001_D\u0082faut004",
			"primitives":[
				{
					"attributes":{
						"POSITION":0,
						"NORMAL":1
					},
					"indices":2,
					"material":0
				}
			]
		},
		{
			"name":"MI 5864 0001_D\u0082faut004.001",
			"primitives":[
				{
					"attributes":{
						"POSITION":3,
						"NORMAL":4
					},
					"indices":2,
					"material":0
				}
			]
		},
		{
			"name":"MR 5862 0005",
			"primitives":[
				{
					"attributes":{
						"POSITION":5,
						"NORMAL":6
					},
					"indices":7,
					"material":1
				}
			]
		},
		{
			"name":"MT 6262 0007",
			"primitives":[
				{
					"attributes":{
						"POSITION":8,
						"NORMAL":9
					},
					"indices":10,
					"material":0
				},
				{
					"attributes":{
						"POSITION":11,
						"NORMAL":12
					},
					"indices":13,
					"material":2
				}
			]
		}
	],
	"accessors":[
		{
			"bufferView":0,
			"componentType":5126,
			"count":4201,
			"max":[
				0.03449999913573265,
				0.013500000350177288,
				0.004922053311020136
			],
			"min":[
				-0.03449999913573265,
				-0.006000000052154064,
				-0.034475646913051605
			],
			"type":"VEC3"
		},
		{
			"bufferView":1,
			"componentType":5126,
			"count":4201,
			"type":"VEC3"
		},
		{
			"bufferView":2,
			"componentType":5123,
			"count":13116,
			"type":"SCALAR"
		},
		{
			"bufferView":3,
			"componentType":5126,
			"count":4201,
			"max":[
				0.03449999913573265,
				0.013500000350177288,
				0.004922053311020136
			],
			"min":[
				-0.03449999913573265,
				-0.006000000052154064,
				-0.034475646913051605
			],
			"type":"VEC3"
		},
		{
			"bufferView":4,
			"componentType":5126,
			"count":4201,
			"type":"VEC3"
		},
		{
			"bufferView":5,
			"componentType":5126,
			"count":2312,
			"max":[
				0.017999999225139618,
				0.03150000050663948,
				0.03150000050663948
			],
			"min":[
				-2.5243550166076616e-32,
				-0.03150000050663948,
				-0.031499870121479034
			],
			"type":"VEC3"
		},
		{
			"bufferView":6,
			"componentType":5126,
			"count":2312,
			"type":"VEC3"
		},
		{
			"bufferView":7,
			"componentType":5123,
			"count":7020,
			"type":"SCALAR"
		},
		{
			"bufferView":8,
			"componentType":5126,
			"count":2133,
			"max":[
				6.310887541519154e-33,
				0.03150000050663948,
				0.03141191974282265
			],
			"min":[
				-0.12800000607967377,
				-0.03150000050663948,
				-0.04551834613084793
			],
			"type":"VEC3"
		},
		{
			"bufferView":9,
			"componentType":5126,
			"count":2133,
			"type":"VEC3"
		},
		{
			"bufferView":10,
			"componentType":5123,
			"count":10656,
			"type":"SCALAR"
		},
		{
			"bufferView":11,
			"componentType":5126,
			"count":1861,
			"max":[
				6.310887541519154e-33,
				0.03150000050663948,
				0.03151017799973488
			],
			"min":[
				-0.12800000607967377,
				-0.03150000050663948,
				-0.04754357412457466
			],
			"type":"VEC3"
		},
		{
			"bufferView":12,
			"componentType":5126,
			"count":1861,
			"type":"VEC3"
		},
		{
			"bufferView":13,
			"componentType":5123,
			"count":9990,
			"type":"SCALAR"
		}
	],
	"bufferViews":[
		{
			"buffer":0,
			"byteLength":50412,
			"byteOffset":0,
			"target":34962
		},
		{
			"buffer":0,
			"byteLength":50412,
			"byteOffset":50412,
			"target":34962
		},
		{
			"buffer":0,
			"byteLength":26232,
			"byteOffset":100824,
			"target":34963
		},
		{
			"buffer":0,
			"byteLength":50412,
			"byteOffset":127056,
			"target":34962
		},
		{
			"buffer":0,
			"byteLength":50412,
			"byteOffset":177468,
			"target":34962
		},
		{
			"buffer":0,
			"byteLength":27744,
			"byteOffset":227880,
			"target":34962
		},
		{
			"buffer":0,
			"byteLength":27744,
			"byteOffset":255624,
			"target":34962
		},
		{
			"buffer":0,
			"byteLength":14040,
			"byteOffset":283368,
			"target":34963
		},
		{
			"buffer":0,
			"byteLength":25596,
			"byteOffset":297408,
			"target":34962
		},
		{
			"buffer":0,
			"byteLength":25596,
			"byteOffset":323004,
			"target":34962
		},
		{
			"buffer":0,
			"byteLength":21312,
			"byteOffset":348600,
			"target":34963
		},
		{
			"buffer":0,
			"byteLength":22332,
			"byteOffset":369912,
			"target":34962
		},
		{
			"buffer":0,
			"byteLength":22332,
			"byteOffset":392244,
			"target":34962
		},
		{
			"buffer":0,
			"byteLength":19980,
			"byteOffset":414576,
			"target":34963
		}
	],
	"buffers":[
		{
			"byteLength":434556,
			"uri":"KINOVA_Gen2_j5.bin"
		}
	]
}
